<svg xmlns="http://www.w3.org/2000/svg" viewBox="0 0 417.48 116.08"><defs><style>.cls-1{fill:#ff4800;}.cls-2{fill:#ff2a00;}.cls-3{fill:#ff7900;}.cls-4{fill:#fa0;}.cls-5{fill:#ffc200;}.cls-6{fill:#333;}</style></defs><g id="Layer_2" data-name="Layer 2"><g id="Layer_1-2" data-name="Layer 1"><path class="cls-1" d="M85.52,104.67H39.87a3.8,3.8,0,0,1-3.3-1.9,3.81,3.81,0,0,1,3.3-5.71H85.52a3.81,3.81,0,1,1,0,7.61Z"/><path class="cls-2" d="M74.11,116.08H51.28a3.8,3.8,0,0,1,0-7.6H74.11a3.8,3.8,0,0,1,0,7.6Z"/><path class="cls-3" d="M96.93,93.26H28.46a3.81,3.81,0,1,1,0-7.61H96.93a3.81,3.81,0,1,1,0,7.61Z"/><path class="cls-4" d="M111.64,76.14a3.8,3.8,0,0,0-3.3-1.9H90.85a30.44,30.44,0,1,0-56.27,0H17a3.8,3.8,0,0,0-3.3,1.9,3.84,3.84,0,0,0,0,3.8,3.8,3.8,0,0,0,3.3,1.9h91.3a3.8,3.8,0,0,0,3.3-5.7ZM50.07,55.55A38.45,38.45,0,0,1,52,47a2.88,2.88,0,0,1,2.79-1.94,3,3,0,0,1,2.45,1.19,2.55,2.55,0,0,1,.26,2.38,31.46,31.46,0,0,0-1.73,7.1A2.9,2.9,0,0,1,53,58.51a3.09,3.09,0,0,1-2.24-1A2.41,2.41,0,0,1,50.07,55.55ZM68,69.9a20.13,20.13,0,0,1-7.45,1.42,21.76,21.76,0,0,1-9.2-2.1,2.61,2.61,0,0,1-1.54-3,3.27,3.27,0,0,1,3.09-2.53,3.14,3.14,0,0,1,1.33.3,14.12,14.12,0,0,0,6.13,1.36,15.72,15.72,0,0,0,5.84-1.14,3.12,3.12,0,0,1,1.1-.22,2.71,2.71,0,0,1,2.61,2.36A3.16,3.16,0,0,1,68,69.9Zm4-21a33.18,33.18,0,0,0-1.82,7.59A3,3,0,0,1,67,59.22a2.73,2.73,0,0,1-2-.86,2.48,2.48,0,0,1-.59-2,39.14,39.14,0,0,1,2.06-9,2.89,2.89,0,0,1,2.78-2,3,3,0,0,1,2.46,1.2A2.55,2.55,0,0,1,72,48.94Z"/><path class="cls-5" d="M62.69,19a3.79,3.79,0,0,1-3.8-3.8V3.8a3.81,3.81,0,0,1,7.61,0V15.22A3.79,3.79,0,0,1,62.69,19Z"/><path class="cls-5" d="M40.86,24.87a3.81,3.81,0,0,1-5.2-1.39L30,13.59a3.8,3.8,0,0,1,6.59-3.8l5.7,9.88a3.81,3.81,0,0,1-1.39,5.2Z"/><path class="cls-5" d="M24.87,40.85a3.79,3.79,0,0,1-5.19,1.4L9.79,36.54A3.81,3.81,0,0,1,13.6,30l9.88,5.71a3.8,3.8,0,0,1,1.39,5.19Z"/><path class="cls-5" d="M19,62.69a3.79,3.79,0,0,1-3.8,3.8H3.8a3.81,3.81,0,0,1,0-7.61H15.22A3.81,3.81,0,0,1,19,62.69Z"/><path class="cls-5" d="M84.53,24.87a3.8,3.8,0,0,1-1.39-5.19l5.7-9.89a3.81,3.81,0,0,1,6.59,3.81l-5.7,9.88a3.8,3.8,0,0,1-2.31,1.77A3.74,3.74,0,0,1,84.53,24.87Z"/><path class="cls-5" d="M100.51,40.86a3.81,3.81,0,0,1,1.39-5.2l9.89-5.7a3.8,3.8,0,0,1,3.8,6.59l-9.88,5.7a3.79,3.79,0,0,1-2.89.38A3.84,3.84,0,0,1,100.51,40.86Z"/><path class="cls-5" d="M106.36,62.69a3.79,3.79,0,0,1,3.8-3.8h11.42a3.81,3.81,0,0,1,0,7.61H110.16a3.79,3.79,0,0,1-3.8-3.81Z"/><path class="cls-6" d="M161.41,58.34a14.05,14.05,0,0,1-5.75-1.07A12.73,12.73,0,0,1,151.33,54l3.89-3.9a9.63,9.63,0,0,0,2.89,2.31,7.83,7.83,0,0,0,3.68.82,5.19,5.19,0,0,0,2.92-.7,2.2,2.2,0,0,0,1-1.93,2.41,2.41,0,0,0-.67-1.76,5.68,5.68,0,0,0-1.81-1.18c-.76-.33-1.59-.64-2.48-.93s-1.79-.65-2.69-1a12.35,12.35,0,0,1-2.49-1.49,6.54,6.54,0,0,1-1.81-2.26,7.47,7.47,0,0,1-.69-3.39,7.26,7.26,0,0,1,4.59-7,12.4,12.4,0,0,1,4.92-.93,13.12,13.12,0,0,1,5.19,1,10.92,10.92,0,0,1,3.86,2.67l-3.93,3.94a9.25,9.25,0,0,0-2.47-1.88,6.25,6.25,0,0,0-2.76-.61,4.5,4.5,0,0,0-2.49.6,1.89,1.89,0,0,0-.91,1.69,2.13,2.13,0,0,0,.68,1.63,6.18,6.18,0,0,0,1.82,1.09c.75.3,1.58.61,2.48.91s1.81.66,2.71,1.05a9.83,9.83,0,0,1,2.46,1.55,7.56,7.56,0,0,1,1.82,2.36,8,8,0,0,1,.7,3.55A7.31,7.31,0,0,1,169,56.15Q166.3,58.34,161.41,58.34Z"/><path class="cls-6" d="M183.28,58.34a9.46,9.46,0,0,1-4.52-1.07,7.69,7.69,0,0,1-3.11-2.92,8.1,8.1,0,0,1-1.11-4.26V39.37h5.88V50a3.76,3.76,0,0,0,.34,1.66,2.55,2.55,0,0,0,1,1.09,3,3,0,0,0,1.53.38,2.57,2.57,0,0,0,2-.84,3.31,3.31,0,0,0,.75-2.29V39.37H192V50.09a8.38,8.38,0,0,1-1.09,4.3,7.72,7.72,0,0,1-3,2.9A9.4,9.4,0,0,1,183.28,58.34Z"/><path class="cls-6" d="M213.74,46.05V57.92h-5.88V47.34A3.1,3.1,0,0,0,207,45a3.18,3.18,0,0,0-2.29-.89,3.29,3.29,0,0,0-1.64.4,2.88,2.88,0,0,0-1.15,1.12,3.33,3.33,0,0,0-.42,1.68V57.92h-5.88V39.36h5.88v1.49a6.7,6.7,0,0,1,1.4-1,8,8,0,0,1,3.83-.9,6.93,6.93,0,0,1,3.63,1,6.83,6.83,0,0,1,2.52,2.57A7.1,7.1,0,0,1,213.74,46.05Z"/><path class="cls-6" d="M224.21,58.42A12.36,12.36,0,0,1,221,58,12,12,0,0,1,218,56.76a10.93,10.93,0,0,1-2.33-1.82l3.36-3.36a6.87,6.87,0,0,0,2.2,1.55,6.67,6.67,0,0,0,2.76.55,3.18,3.18,0,0,0,1.51-.3,1,1,0,0,0,.56-.88,1.06,1.06,0,0,0-.65-1,9.3,9.3,0,0,0-1.7-.61c-.7-.19-1.43-.41-2.2-.65a10.09,10.09,0,0,1-2.17-1,4.66,4.66,0,0,1-1.68-1.68,5.23,5.23,0,0,1-.65-2.78,5.28,5.28,0,0,1,.91-3.11,6.25,6.25,0,0,1,2.6-2.08,9.63,9.63,0,0,1,4-.77,11.61,11.61,0,0,1,4.35.82,7.61,7.61,0,0,1,3.25,2.43l-3.33,3.4a5,5,0,0,0-2-1.47,5.52,5.52,0,0,0-2.12-.44,2.94,2.94,0,0,0-1.49.3.93.93,0,0,0-.5.8,1,1,0,0,0,.67.92,8.69,8.69,0,0,0,1.68.61q1,.27,2.16.63a9.23,9.23,0,0,1,2.18,1,5.45,5.45,0,0,1,1.68,1.76,5.51,5.51,0,0,1,.64,2.84,5.24,5.24,0,0,1-2,4.33A8.57,8.57,0,0,1,224.21,58.42Z"/><path class="cls-6" d="M253.06,46.05V57.92h-5.87V47.34a3.1,3.1,0,0,0-.92-2.31,3.18,3.18,0,0,0-2.29-.89,3.29,3.29,0,0,0-1.64.4,2.88,2.88,0,0,0-1.15,1.12,3.33,3.33,0,0,0-.42,1.68V57.92h-5.88V30.2h5.88V40.78a6.27,6.27,0,0,1,1.26-.9,7.66,7.66,0,0,1,3.74-.9,7.82,7.82,0,0,1,3.82.9,6.57,6.57,0,0,1,2.56,2.48A7.26,7.26,0,0,1,253.06,46.05Z"/><path class="cls-6" d="M259.71,36.85a3,3,0,0,1-2.25-1,3.15,3.15,0,0,1-.92-2.29,3.13,3.13,0,0,1,3.17-3.2,3,3,0,0,1,2.27.91,3.24,3.24,0,0,1,.86,2.29,3.31,3.31,0,0,1-.86,2.29A2.9,2.9,0,0,1,259.71,36.85Zm-2.94,21.07V39.37h5.88V57.92Z"/><path class="cls-6" d="M284.86,46.05V57.92H279V47.34a3.1,3.1,0,0,0-.91-2.31,3.18,3.18,0,0,0-2.29-.89,3.29,3.29,0,0,0-1.64.4A2.88,2.88,0,0,0,273,45.66a3.33,3.33,0,0,0-.42,1.68V57.92h-5.88V39.36h5.88v1.49a6.52,6.52,0,0,1,1.39-1,8.12,8.12,0,0,1,3.84-.9,6.93,6.93,0,0,1,3.63,1A6.83,6.83,0,0,1,284,42.51,7.1,7.1,0,0,1,284.86,46.05Z"/><path class="cls-6" d="M305.48,43.41a8.78,8.78,0,0,0-3.32-3.28,9.78,9.78,0,0,0-4.89-1.19,10.23,10.23,0,0,0-5.08,1.26,9.43,9.43,0,0,0-3.55,3.46,10.09,10.09,0,0,0,0,10,9.27,9.27,0,0,0,3.67,3.46,11.25,11.25,0,0,0,5.34,1.24,11.45,11.45,0,0,0,4.31-.78,8.3,8.3,0,0,0,3.32-2.43l-3.24-3.21a5.44,5.44,0,0,1-1.95,1.44,6.24,6.24,0,0,1-2.44.47,5.08,5.08,0,0,1-2.58-.63,4.27,4.27,0,0,1-1.68-1.81,4.73,4.73,0,0,1-.3-.77l13.26-.07a7.56,7.56,0,0,0,.25-1.24,10.09,10.09,0,0,0,.06-1.09A9.42,9.42,0,0,0,305.48,43.41Zm-12.36,3.15a5,5,0,0,1,.27-.71,4.21,4.21,0,0,1,4-2.44,3.92,3.92,0,0,1,2.15.57,3.64,3.64,0,0,1,1.36,1.63,4.2,4.2,0,0,1,.28.91Z"/><path class="cls-6" d="M330,58.34a14.69,14.69,0,0,1-5.6-1.05,13.6,13.6,0,0,1-4.5-3,13.45,13.45,0,0,1-3-4.45,14.54,14.54,0,0,1,0-11,13.18,13.18,0,0,1,3-4.41,13.94,13.94,0,0,1,4.48-2.92,15.92,15.92,0,0,1,11.32,0,13.92,13.92,0,0,1,4.37,2.82l-4,4.09a7.42,7.42,0,0,0-2.54-1.8,8.83,8.83,0,0,0-3.49-.64,8.3,8.3,0,0,0-3.21.59,7.15,7.15,0,0,0-2.52,1.7A7.46,7.46,0,0,0,322.66,41a10.4,10.4,0,0,0,0,6.85,7.73,7.73,0,0,0,1.64,2.67,7.07,7.07,0,0,0,2.52,1.72,8.3,8.3,0,0,0,3.21.59,9.31,9.31,0,0,0,3.58-.63,7,7,0,0,0,2.6-1.81l4.08,4.08a13.6,13.6,0,0,1-4.42,2.85A15.7,15.7,0,0,1,330,58.34Z"/><path class="cls-6" d="M351.56,58.34a10.32,10.32,0,0,1-5.2-1.3,9.76,9.76,0,0,1-3.62-3.51,9.43,9.43,0,0,1-1.34-5,9.24,9.24,0,0,1,1.32-4.89,9.58,9.58,0,0,1,3.61-3.45A10.45,10.45,0,0,1,351.56,39a10.64,10.64,0,0,1,5.17,1.26,9.51,9.51,0,0,1,3.64,3.45,9.28,9.28,0,0,1,1.34,4.91,9.38,9.38,0,0,1-1.34,5A9.86,9.86,0,0,1,356.75,57,10.31,10.31,0,0,1,351.56,58.34Zm0-5.34a4.31,4.31,0,0,0,2.17-.54,3.53,3.53,0,0,0,1.47-1.54,5.1,5.1,0,0,0,.52-2.31,4.56,4.56,0,0,0-.54-2.24,3.77,3.77,0,0,0-1.47-1.52,4.13,4.13,0,0,0-2.15-.56,4.26,4.26,0,0,0-2.18.56,3.81,3.81,0,0,0-1.49,1.54,4.55,4.55,0,0,0-.53,2.22,4.86,4.86,0,0,0,.53,2.31,3.69,3.69,0,0,0,1.49,1.54A4.35,4.35,0,0,0,351.56,53Z"/><path class="cls-6" d="M377.44,39.36v1.55a6.27,6.27,0,0,0-1.74-1.2,7.76,7.76,0,0,0-3.38-.73,8.57,8.57,0,0,0-4.56,1.24,8.85,8.85,0,0,0-3.17,3.44,10.4,10.4,0,0,0-1.16,5,10.22,10.22,0,0,0,1.16,5A9.15,9.15,0,0,0,367.78,57a8.34,8.34,0,0,0,4.54,1.28,7.73,7.73,0,0,0,3.42-.73,6.38,6.38,0,0,0,1.7-1.18v1.53h5.76V39.36Zm-.9,12.41a3.86,3.86,0,0,1-3,1.22,4.09,4.09,0,0,1-2.12-.55,4,4,0,0,1-1.48-1.55,4.8,4.8,0,0,1,0-4.5,4,4,0,0,1,1.48-1.55,4.09,4.09,0,0,1,2.12-.55,4.26,4.26,0,0,1,2.18.55,3.69,3.69,0,0,1,1.45,1.53,4.85,4.85,0,0,1,.5,2.23A4.49,4.49,0,0,1,376.54,51.77Z"/><path class="cls-6" d="M394.08,58.42a12.34,12.34,0,0,1-3.24-.44,12,12,0,0,1-2.94-1.22,10.93,10.93,0,0,1-2.33-1.82l3.36-3.36a6.83,6.83,0,0,0,2.19,1.55,6.72,6.72,0,0,0,2.77.55,3.18,3.18,0,0,0,1.51-.3,1,1,0,0,0,.55-.88,1,1,0,0,0-.65-1,9.17,9.17,0,0,0-1.69-.61c-.71-.19-1.44-.41-2.2-.65a10.4,10.4,0,0,1-2.18-1,4.82,4.82,0,0,1-1.68-1.68,6,6,0,0,1,.27-5.89,6.19,6.19,0,0,1,2.6-2.08,9.59,9.59,0,0,1,4-.77,11.61,11.61,0,0,1,4.35.82A7.52,7.52,0,0,1,402,42.08l-3.32,3.4a5,5,0,0,0-2-1.47,5.56,5.56,0,0,0-2.12-.44,2.92,2.92,0,0,0-1.49.3.93.93,0,0,0-.5.8,1,1,0,0,0,.67.92,8.22,8.22,0,0,0,1.68.61q1,.27,2.16.63a9.17,9.17,0,0,1,2.17,1A5.25,5.25,0,0,1,401,49.62a5.5,5.5,0,0,1,.65,2.84,5.24,5.24,0,0,1-2,4.33A8.58,8.58,0,0,1,394.08,58.42Z"/><polygon class="cls-6" points="417.48 39.36 417.48 44.37 413.28 44.37 413.28 57.92 407.4 57.92 407.4 44.37 403.24 44.37 403.24 39.36 407.4 39.36 407.4 31.69 413.28 31.69 413.28 39.36 417.48 39.36"/><polygon class="cls-6" points="164.34 68.98 164.34 85.64 162.08 85.64 162.08 78.05 153.58 78.05 153.58 85.64 151.33 85.64 151.33 68.98 153.58 68.98 153.58 75.99 162.08 75.99 162.08 68.98 164.34 68.98"/><path class="cls-6" d="M173.07,85.88a5.9,5.9,0,0,1-3-.79,6,6,0,0,1-2.13-2.15,5.89,5.89,0,0,1-.79-3,5.68,5.68,0,0,1,.79-3,6,6,0,0,1,2.13-2.13,5.8,5.8,0,0,1,3-.79,6,6,0,0,1,3,.78,5.91,5.91,0,0,1,2.15,2.12,5.8,5.8,0,0,1,.79,3,5.89,5.89,0,0,1-.79,3,5.89,5.89,0,0,1-5.19,2.94Zm0-2.09a3.77,3.77,0,0,0,2-.5,3.65,3.65,0,0,0,1.32-1.38,4.12,4.12,0,0,0,.48-2,4,4,0,0,0-.49-2A3.67,3.67,0,0,0,175,76.58a3.73,3.73,0,0,0-1.94-.49,3.65,3.65,0,0,0-1.89.49,3.52,3.52,0,0,0-1.32,1.36,4,4,0,0,0-.48,2,4.12,4.12,0,0,0,.48,2,3.56,3.56,0,0,0,3.21,1.88Z"/><polygon class="cls-6" points="187.81 74.24 187.81 76.21 185 76.21 185 85.64 182.84 85.64 182.84 76.21 180.03 76.21 180.03 74.24 182.84 74.24 182.84 69.46 185 69.46 185 74.24 187.81 74.24"/><path class="cls-6" d="M199.39,76.71a5,5,0,0,0-1.91-2A5.38,5.38,0,0,0,194.7,74a5.78,5.78,0,0,0-5.1,2.9,6,6,0,0,0-.78,3,5.84,5.84,0,0,0,.79,3,5.78,5.78,0,0,0,2.15,2.13,6.05,6.05,0,0,0,3.08.78,6.24,6.24,0,0,0,2.52-.51,5.52,5.52,0,0,0,2-1.46L198,82.49a3.53,3.53,0,0,1-1.38,1,4.56,4.56,0,0,1-1.76.34,4.22,4.22,0,0,1-2-.49,3.42,3.42,0,0,1-1.37-1.4,4,4,0,0,1-.4-1.21H200a5.49,5.49,0,0,0,.1-.61c0-.18,0-.36,0-.52A6.09,6.09,0,0,0,199.39,76.71ZM191,78.94a3.77,3.77,0,0,1,.38-1.13,3.26,3.26,0,0,1,1.29-1.34,3.86,3.86,0,0,1,2-.48,3.53,3.53,0,0,1,1.8.44,3,3,0,0,1,1.15,1.25,3.78,3.78,0,0,1,.36,1.26Z"/><path class="cls-6" d="M202.43,85.64V68.5h2.16V85.64Z"/><path class="cls-6" d="M217.81,76a9.32,9.32,0,0,1-1.08-1.39,2.81,2.81,0,0,1-.36-1.47,2.12,2.12,0,0,1,.72-1.65,2.6,2.6,0,0,1,1.8-.65,2.7,2.7,0,0,1,1.58.46,4.9,4.9,0,0,1,1.23,1.22l1.56-1.42a5.52,5.52,0,0,0-1.07-1.2,5.44,5.44,0,0,0-1.47-.85,5.09,5.09,0,0,0-1.83-.32,4.86,4.86,0,0,0-2.43.59,4.28,4.28,0,0,0-2.25,3.85,4.49,4.49,0,0,0,.45,2,8.05,8.05,0,0,0,.73,1.15,5.46,5.46,0,0,0-2.06,1.78,4.81,4.81,0,0,0-.83,2.74,4.94,4.94,0,0,0,.7,2.6,4.8,4.8,0,0,0,1.94,1.79,6.27,6.27,0,0,0,2.91.65,6.91,6.91,0,0,0,2-.29,6.67,6.67,0,0,0,1.73-.8,5.29,5.29,0,0,0,.81-.66L224,85.64h2.66Zm2.46,7.3a4.2,4.2,0,0,1-2.15.52,4.09,4.09,0,0,1-1.79-.37,2.87,2.87,0,0,1-1.21-1,2.91,2.91,0,0,1-.43-1.61,3.46,3.46,0,0,1,.55-2,3.67,3.67,0,0,1,1.29-1.18l4.62,5A3.91,3.91,0,0,1,220.27,83.29Z"/><path class="cls-6" d="M239.44,78.37a5.7,5.7,0,0,0,2.41-.57,4.33,4.33,0,0,0,1.82-1.64,4.76,4.76,0,0,0,.63-2.48,4.65,4.65,0,0,0-.63-2.42,4.53,4.53,0,0,0-1.82-1.67,5.85,5.85,0,0,0-2.76-.61H233V85.64h2.26V78.39h1.48l5.87,7.25h2.85ZM235.23,71H239a3,3,0,0,1,2.22.79,2.72,2.72,0,0,1,.78,2,2.67,2.67,0,0,1-.78,2,3.11,3.11,0,0,1-2.24.74h-3.77Z"/><path class="cls-6" d="M256.84,76.71a5,5,0,0,0-1.91-2,5.36,5.36,0,0,0-2.78-.72,5.78,5.78,0,0,0-5.1,2.9,6,6,0,0,0-.78,3,5.82,5.82,0,0,0,2.94,5.17,6.05,6.05,0,0,0,3.08.78,6.24,6.24,0,0,0,2.52-.51,5.44,5.44,0,0,0,2-1.46l-1.39-1.42a3.68,3.68,0,0,1-1.38,1,4.65,4.65,0,0,1-1.77.34,4.27,4.27,0,0,1-2-.49,3.4,3.4,0,0,1-1.36-1.4,4,4,0,0,1-.4-1.21h8.92a3.75,3.75,0,0,0,.09-.61,4.81,4.81,0,0,0,0-.52A6,6,0,0,0,256.84,76.71Zm-8.35,2.23a3.75,3.75,0,0,1,.37-1.13,3.35,3.35,0,0,1,1.3-1.34A3.85,3.85,0,0,1,252.1,76a3.48,3.48,0,0,1,1.8.44,3,3,0,0,1,1.15,1.25,3.78,3.78,0,0,1,.37,1.26Z"/><path class="cls-6" d="M263.5,85.88a6.4,6.4,0,0,1-1.82-.25,5.78,5.78,0,0,1-1.57-.72,5.52,5.52,0,0,1-1.24-1.12l1.39-1.39a4.09,4.09,0,0,0,1.44,1.14,4.37,4.37,0,0,0,1.83.37,2.86,2.86,0,0,0,1.56-.35,1.08,1.08,0,0,0,.55-1,1.18,1.18,0,0,0-.44-1,4,4,0,0,0-1.14-.58c-.47-.15-1-.3-1.48-.44A7.58,7.58,0,0,1,261.1,80,3.2,3.2,0,0,1,260,79a2.92,2.92,0,0,1-.44-1.67,3,3,0,0,1,1.9-3A5.3,5.3,0,0,1,263.6,74a5.82,5.82,0,0,1,2.39.47,4.16,4.16,0,0,1,1.71,1.4l-1.39,1.39a3.5,3.5,0,0,0-1.2-1,3.63,3.63,0,0,0-1.58-.33,2.56,2.56,0,0,0-1.43.33,1.09,1.09,0,0,0-.06,1.78,4,4,0,0,0,1.14.53l1.48.44a7.5,7.5,0,0,1,1.46.61,3.34,3.34,0,0,1,1.14,1,2.92,2.92,0,0,1,.44,1.7,3.11,3.11,0,0,1-1.14,2.54A4.64,4.64,0,0,1,263.5,85.88Z"/><polygon class="cls-6" points="276.85 74.24 276.85 76.21 274.04 76.21 274.04 85.64 271.88 85.64 271.88 76.21 269.07 76.21 269.07 74.24 271.88 74.24 271.88 69.46 274.04 69.46 274.04 74.24 276.85 74.24"/><path class="cls-6" d="M287.24,74.24V75.8a4.31,4.31,0,0,0-1.48-1.26,4.86,4.86,0,0,0-2.31-.54,5.22,5.22,0,0,0-2.85.79,5.7,5.7,0,0,0-2,2.14,6.61,6.61,0,0,0,0,6,5.59,5.59,0,0,0,2,2.13,5.3,5.3,0,0,0,2.85.78,4.9,4.9,0,0,0,2.32-.54,4.16,4.16,0,0,0,1.47-1.25v1.55h2.18V74.24Zm-.84,8.51a3.35,3.35,0,0,1-2.59,1.09,3.63,3.63,0,0,1-1.92-.51A3.42,3.42,0,0,1,280.58,82a4.55,4.55,0,0,1,0-4,3.57,3.57,0,0,1,1.29-1.38,3.68,3.68,0,0,1,1.91-.5,3.55,3.55,0,0,1,1.89.49,3.51,3.51,0,0,1,1.26,1.38,4.44,4.44,0,0,1,.45,2A4.05,4.05,0,0,1,286.4,82.75Z"/><path class="cls-6" d="M297.18,85.83a5.19,5.19,0,0,1-2.54-.61,4.41,4.41,0,0,1-1.74-1.74,5.37,5.37,0,0,1-.62-2.62V74.24h2.16v6.53a3.87,3.87,0,0,0,.32,1.62,2.4,2.4,0,0,0,.95,1,2.91,2.91,0,0,0,1.47.36,2.56,2.56,0,0,0,2-.8,3.22,3.22,0,0,0,.72-2.22V74.24h2.16v6.62a5.26,5.26,0,0,1-.63,2.62,4.36,4.36,0,0,1-1.72,1.74A5.11,5.11,0,0,1,297.18,85.83Z"/><path class="cls-6" d="M313.06,75.29l-1.41,1.47a2.09,2.09,0,0,0-.8-.55,2.56,2.56,0,0,0-1-.17,2.64,2.64,0,0,0-2,.77,3.2,3.2,0,0,0-.77,2.35v6.48H305V74.24h2.16v1.32l.19-.27A3.47,3.47,0,0,1,310.21,74a3.94,3.94,0,0,1,1.56.3A3.67,3.67,0,0,1,313.06,75.29Z"/><path class="cls-6" d="M322.85,74.24v1.55a4.25,4.25,0,0,0-1.47-1.25,4.87,4.87,0,0,0-2.32-.54,5.21,5.21,0,0,0-2.84.79,5.62,5.62,0,0,0-2,2.14,6.53,6.53,0,0,0,0,6,5.52,5.52,0,0,0,2,2.13,5.29,5.29,0,0,0,2.84.78,4.94,4.94,0,0,0,2.33-.54,4,4,0,0,0,1.46-1.25v1.55H325V74.24ZM322,82.75a3.34,3.34,0,0,1-2.59,1.09,3.63,3.63,0,0,1-1.92-.51A3.48,3.48,0,0,1,316.19,82a4.64,4.64,0,0,1,0-4A3.51,3.51,0,0,1,319.4,76a3.49,3.49,0,0,1,1.88.49,3.37,3.37,0,0,1,1.26,1.38,4.32,4.32,0,0,1,.46,2A4,4,0,0,1,322,82.75Z"/><path class="cls-6" d="M338.41,78.56v7.08h-2.19V79a3,3,0,0,0-.8-2.14,2.79,2.79,0,0,0-2.1-.84,3,3,0,0,0-1.54.39,2.72,2.72,0,0,0-1,1,3,3,0,0,0-.39,1.54v6.65h-2.16V74.24h2.16V75.7a4.24,4.24,0,0,1,1.3-1.11A4.54,4.54,0,0,1,334,74a4.14,4.14,0,0,1,2.29.64,4.74,4.74,0,0,1,1.57,1.7A4.54,4.54,0,0,1,338.41,78.56Z"/><polygon class="cls-6" points="347.91 74.24 347.91 76.21 345.1 76.21 345.1 85.64 342.94 85.64 342.94 76.21 340.13 76.21 340.13 74.24 342.94 74.24 342.94 69.46 345.1 69.46 345.1 74.24 347.91 74.24"/></g></g></svg>